<svg id="visual" viewBox="0 0 900 600" width="900" height="600" xmlns="http://www.w3.org/2000/svg" xmlns:xlink="http://www.w3.org/1999/xlink" version="1.1"><rect x="0" y="0" width="900" height="600" fill="#D2D4E2"></rect><defs><linearGradient id="grad1_0" x1="33.3%" y1="0%" x2="100%" y2="100%"><stop offset="20%" stop-color="#d2d4e2" stop-opacity="1"></stop><stop offset="80%" stop-color="#d2d4e2" stop-opacity="1"></stop></linearGradient></defs><defs><linearGradient id="grad2_0" x1="0%" y1="0%" x2="66.7%" y2="100%"><stop offset="20%" stop-color="#d2d4e2" stop-opacity="1"></stop><stop offset="80%" stop-color="#d2d4e2" stop-opacity="1"></stop></linearGradient></defs><g transform="translate(900, 0)"><path d="M0 459.7C-43 461.4 -85.9 463.1 -117.2 437.6C-148.6 412 -168.2 359.2 -188.5 326.5C-208.8 293.7 -229.8 281 -272.2 272.2C-314.7 263.5 -378.7 258.7 -398.1 229.9C-417.5 201 -392.2 148.2 -395.1 105.9C-397.9 63.5 -428.8 31.8 -459.7 0L0 0Z" fill="#9599BA"></path></g><g transform="translate(0, 600)"><path d="M0 -459.7C37.5 -437.7 75 -415.7 104.8 -391.2C134.7 -366.7 156.9 -339.7 188.5 -326.5C220.1 -313.3 260.9 -314 301.9 -301.9C342.9 -289.9 384.1 -265.2 398.1 -229.9C412.1 -194.5 399 -148.5 404.7 -108.4C410.5 -68.4 435.1 -34.2 459.7 0L0 0Z" fill="#9599BA"></path></g></svg>