<svg id="visual" viewBox="0 0 900 600" width="900" height="600" xmlns="http://www.w3.org/2000/svg" xmlns:xlink="http://www.w3.org/1999/xlink" version="1.1"><g stroke-width="1" stroke-linejoin="bevel"><path d="M538.3 268L542.3 397L662.9 361Z" fill="#15384f" stroke="#15384f"></path><path d="M662.9 361L654.9 204L538.3 268Z" fill="#00101c" stroke="#00101c"></path><path d="M676.9 467L738.4 348L662.9 361Z" fill="#00101c" stroke="#00101c"></path><path d="M662.9 361L738.4 348L654.9 204Z" fill="#297ea6" stroke="#297ea6"></path><path d="M542.3 397L676.9 467L662.9 361Z" fill="#19435d" stroke="#19435d"></path><path d="M421.7 518L519.3 512L542.3 397Z" fill="#205a7a" stroke="#205a7a"></path><path d="M542.3 397L519.3 512L676.9 467Z" fill="#19435d" stroke="#19435d"></path><path d="M780.4 203L676.9 158L654.9 204Z" fill="#246688" stroke="#246688"></path><path d="M654.9 204L554.3 101L538.3 268Z" fill="#205a7a" stroke="#205a7a"></path><path d="M734.4 600L746.4 473L676.9 467Z" fill="#246688" stroke="#246688"></path><path d="M676.9 467L746.4 473L738.4 348Z" fill="#1d4e6b" stroke="#1d4e6b"></path><path d="M738.4 348L780.4 203L654.9 204Z" fill="#00101c" stroke="#00101c"></path><path d="M900 225L780.4 203L738.4 348Z" fill="#246688" stroke="#246688"></path><path d="M621.9 0L554.3 101L676.9 158Z" fill="#297ea6" stroke="#297ea6"></path><path d="M676.9 158L554.3 101L654.9 204Z" fill="#15384f" stroke="#15384f"></path><path d="M554.3 101L378.7 227L538.3 268Z" fill="#246688" stroke="#246688"></path><path d="M538.3 268L352.7 367L542.3 397Z" fill="#00101c" stroke="#00101c"></path><path d="M378.7 227L352.7 367L538.3 268Z" fill="#081a28" stroke="#081a28"></path><path d="M352.7 367L421.7 518L542.3 397Z" fill="#297ea6" stroke="#297ea6"></path><path d="M780.4 203L769.4 150L676.9 158Z" fill="#19435d" stroke="#19435d"></path><path d="M490.3 600L630.9 600L519.3 512Z" fill="#277297" stroke="#277297"></path><path d="M519.3 512L630.9 600L676.9 467Z" fill="#0c2435" stroke="#0c2435"></path><path d="M421.7 518L490.3 600L519.3 512Z" fill="#0c2435" stroke="#0c2435"></path><path d="M554.3 101L373.7 130L378.7 227Z" fill="#00101c" stroke="#00101c"></path><path d="M378.7 227L275.1 263L352.7 367Z" fill="#112e42" stroke="#112e42"></path><path d="M630.9 600L734.4 600L676.9 467Z" fill="#1d4e6b" stroke="#1d4e6b"></path><path d="M746.4 473L900 378L738.4 348Z" fill="#112e42" stroke="#112e42"></path><path d="M900 501L900 378L746.4 473Z" fill="#19435d" stroke="#19435d"></path><path d="M780.4 203L900 225L769.4 150Z" fill="#19435d" stroke="#19435d"></path><path d="M284.1 600L414.7 600L421.7 518Z" fill="#15384f" stroke="#15384f"></path><path d="M421.7 518L414.7 600L490.3 600Z" fill="#277297" stroke="#277297"></path><path d="M240.1 127L275.1 263L378.7 227Z" fill="#297ea6" stroke="#297ea6"></path><path d="M352.7 367L251.1 455L421.7 518Z" fill="#1d4e6b" stroke="#1d4e6b"></path><path d="M900 378L900 225L738.4 348Z" fill="#1d4e6b" stroke="#1d4e6b"></path><path d="M787.4 0L621.9 0L676.9 158Z" fill="#19435d" stroke="#19435d"></path><path d="M554.3 101L499.3 0L373.7 130Z" fill="#1d4e6b" stroke="#1d4e6b"></path><path d="M787.4 0L676.9 158L769.4 150Z" fill="#277297" stroke="#277297"></path><path d="M621.9 0L499.3 0L554.3 101Z" fill="#19435d" stroke="#19435d"></path><path d="M734.4 600L900 501L746.4 473Z" fill="#15384f" stroke="#15384f"></path><path d="M275.1 263L231.1 341L352.7 367Z" fill="#1d4e6b" stroke="#1d4e6b"></path><path d="M231.1 341L251.1 455L352.7 367Z" fill="#1d4e6b" stroke="#1d4e6b"></path><path d="M900 93L787.4 0L769.4 150Z" fill="#277297" stroke="#277297"></path><path d="M900 225L900 93L769.4 150Z" fill="#297ea6" stroke="#297ea6"></path><path d="M373.7 130L240.1 127L378.7 227Z" fill="#277297" stroke="#277297"></path><path d="M275.1 263L158.6 266L231.1 341Z" fill="#205a7a" stroke="#205a7a"></path><path d="M347.7 0L240.1 127L373.7 130Z" fill="#1d4e6b" stroke="#1d4e6b"></path><path d="M251.1 455L284.1 600L421.7 518Z" fill="#1d4e6b" stroke="#1d4e6b"></path><path d="M499.3 0L347.7 0L373.7 130Z" fill="#277297" stroke="#277297"></path><path d="M734.4 600L900 600L900 501Z" fill="#246688" stroke="#246688"></path><path d="M240.1 127L158.6 266L275.1 263Z" fill="#00101c" stroke="#00101c"></path><path d="M231.1 341L136.6 467L251.1 455Z" fill="#277297" stroke="#277297"></path><path d="M251.1 455L163.6 600L284.1 600Z" fill="#19435d" stroke="#19435d"></path><path d="M900 93L900 0L787.4 0Z" fill="#1d4e6b" stroke="#1d4e6b"></path><path d="M101.6 351L136.6 467L231.1 341Z" fill="#277297" stroke="#277297"></path><path d="M240.1 127L109.6 147L158.6 266Z" fill="#19435d" stroke="#19435d"></path><path d="M347.7 0L245.1 0L240.1 127Z" fill="#246688" stroke="#246688"></path><path d="M158.6 266L101.6 351L231.1 341Z" fill="#297ea6" stroke="#297ea6"></path><path d="M0 246L101.6 351L158.6 266Z" fill="#277297" stroke="#277297"></path><path d="M0 511L163.6 600L136.6 467Z" fill="#297ea6" stroke="#297ea6"></path><path d="M136.6 467L163.6 600L251.1 455Z" fill="#1d4e6b" stroke="#1d4e6b"></path><path d="M106.6 0L109.6 147L240.1 127Z" fill="#19435d" stroke="#19435d"></path><path d="M245.1 0L106.6 0L240.1 127Z" fill="#1d4e6b" stroke="#1d4e6b"></path><path d="M0 246L0 366L101.6 351Z" fill="#0c2435" stroke="#0c2435"></path><path d="M0 246L158.6 266L109.6 147Z" fill="#081a28" stroke="#081a28"></path><path d="M101.6 351L0 366L136.6 467Z" fill="#19435d" stroke="#19435d"></path><path d="M0 101L0 246L109.6 147Z" fill="#15384f" stroke="#15384f"></path><path d="M0 366L0 511L136.6 467Z" fill="#205a7a" stroke="#205a7a"></path><path d="M106.6 0L0 101L109.6 147Z" fill="#00101c" stroke="#00101c"></path><path d="M0 511L0 600L163.6 600Z" fill="#19435d" stroke="#19435d"></path><path d="M106.6 0L0 0L0 101Z" fill="#1d4e6b" stroke="#1d4e6b"></path></g></svg>